<svg aria-hidden="true" style="width:0;height:0;position:absolute;overflow:hidden" xmlns="http://www.w3.org/2000/svg"><defs><symbol id="icon-activity-heart" viewBox="0 0 32 32"><path d="M15.991 6.848C13.325 3.731 8.88 2.893 5.54 5.747s-3.81 7.625-1.187 11c1.981 2.549 7.609 7.667 10.245 10.019.485.432.727.648 1.01.734.246.074.52.074.766 0 .284-.085.526-.301 1.01-.734 2.636-2.352 8.264-7.47 10.245-10.019 2.623-3.375 2.21-8.177-1.187-11.001s-7.785-2.015-10.451 1.101z"/><path fill="none" stroke="#000" style="stroke:var(--color1,#000)" stroke-linejoin="round" stroke-linecap="round" stroke-width="3.2" d="M20.667 15.333h-1.333l-2 4-2.667-8-2 4h-1.333m4.657-8.485C13.325 3.731 8.88 2.893 5.54 5.747s-3.81 7.625-1.187 11c1.981 2.549 7.609 7.667 10.245 10.019.485.432.727.648 1.01.734.246.074.52.074.766 0 .284-.085.526-.301 1.01-.734 2.636-2.352 8.264-7.47 10.245-10.019 2.623-3.375 2.21-8.177-1.187-11.001s-7.785-2.015-10.451 1.101z"/></symbol><symbol id="icon-announcement" viewBox="0 0 32 32"><path d="M13.667 7.334h-4.6c-2.24 0-3.36 0-4.216.436a3.996 3.996 0 0 0-1.748 1.748c-.436.856-.436 1.976-.436 4.216v1.6c0 1.243 0 1.864.203 2.354.271.653.79 1.173 1.443 1.443.49.203 1.111.203 2.354.203v5.667c0 .309 0 .464.013.595a2.666 2.666 0 0 0 2.392 2.392c.13.013.285.013.595.013s.464 0 .595-.013a2.666 2.666 0 0 0 2.392-2.392c.013-.13.013-.285.013-.595v-5.667h1c2.355 0 5.236 1.263 7.459 2.474 1.297.707 1.945 1.06 2.37 1.008.394-.048.692-.225.922-.548.249-.348.249-1.044.249-2.437V6.834c0-1.392 0-2.089-.249-2.437a1.264 1.264 0 0 0-.922-.548c-.425-.052-1.073.301-2.37 1.008-2.223 1.212-5.104 2.474-7.459 2.474z"/><path fill="none" stroke="#000" style="stroke:var(--color1,#000)" stroke-linejoin="round" stroke-linecap="round" stroke-width="3.2" d="M29.333 10.667V16M13.667 7.334h-4.6c-2.24 0-3.36 0-4.216.436a3.996 3.996 0 0 0-1.748 1.748c-.436.856-.436 1.976-.436 4.216v1.6c0 1.243 0 1.864.203 2.354.271.653.79 1.173 1.443 1.443.49.203 1.111.203 2.354.203v5.667c0 .309 0 .464.013.595a2.666 2.666 0 0 0 2.392 2.392c.13.013.285.013.595.013s.464 0 .595-.013a2.666 2.666 0 0 0 2.392-2.392c.013-.13.013-.285.013-.595v-5.667h1c2.355 0 5.236 1.263 7.459 2.474 1.297.707 1.945 1.06 2.37 1.008.394-.048.692-.225.922-.548.249-.348.249-1.044.249-2.437V6.834c0-1.392 0-2.089-.249-2.437a1.264 1.264 0 0 0-.922-.548c-.425-.052-1.073.301-2.37 1.008-2.223 1.212-5.104 2.474-7.459 2.474z"/></symbol><symbol id="icon-arrow-down" viewBox="0 0 32 32"><path d="M30.24 10.438c.333.375.333.729 0 1.063L17.115 24.626c-.333.333-.667.333-1 0L2.99 11.501c-.333-.333-.333-.688 0-1.063L4.24 9.25c.333-.375.688-.375 1.063 0L16.616 20.5 27.929 9.25c.375-.375.729-.375 1.062 0l1.25 1.188z"/></symbol><symbol id="icon-arrow-up" viewBox="0 0 32 32"><path fill="#f89e52" style="fill:var(--color2,#f89e52)" d="M2.78 21.563c-.333-.375-.333-.729 0-1.063L15.905 7.375c.333-.333.667-.333 1 0L30.03 20.5c.333.333.333.687 0 1.063l-1.25 1.187c-.333.375-.688.375-1.063 0L16.405 11.5 5.092 22.75c-.375.375-.729.375-1.063 0l-1.25-1.187z"/></symbol><symbol id="icon-award" viewBox="0 0 32 32"><path d="m10.491 20.613-1.158 8.72 6.118-3.671c.2-.12.299-.18.406-.203a.657.657 0 0 1 .286 0c.107.023.206.083.406.203l6.118 3.671-1.157-8.724-.332.802a2.03 2.03 0 0 1-2.656 1.1l-1.744-.722a2.034 2.034 0 0 0-1.555.001l-1.745.722a2.034 2.034 0 0 1-2.655-1.099l-.331-.8z"/><path fill="none" stroke="#000" style="stroke:var(--color1,#000)" stroke-linejoin="round" stroke-linecap="round" stroke-width="3.2" d="m10.492 20.613-1.158 8.72 6.118-3.671c.2-.12.299-.18.406-.203a.657.657 0 0 1 .286 0c.106.023.206.083.406.203l6.118 3.671-1.157-8.724m.39-14.944c.206.498.601.894 1.099 1.101l1.745.723a2.03 2.03 0 0 1 1.1 2.656l-.722 1.744a2.027 2.027 0 0 0 .001 1.556l.721 1.744a2.038 2.038 0 0 1-.441 2.216 2.028 2.028 0 0 1-.66.441L23 18.568a2.03 2.03 0 0 0-1.1 1.099l-.723 1.745a2.03 2.03 0 0 1-2.656 1.1l-1.744-.722a2.034 2.034 0 0 0-1.555.001l-1.745.722a2.034 2.034 0 0 1-2.655-1.099l-.723-1.746A2.034 2.034 0 0 0 9 18.567l-1.745-.723a2.034 2.034 0 0 1-1.101-2.655l.722-1.744a2.034 2.034 0 0 0-.001-1.555l-.721-1.746a2.038 2.038 0 0 1 .441-2.216c.189-.189.413-.339.66-.441l1.744-.722a2.034 2.034 0 0 0 1.1-1.098l.723-1.745a2.03 2.03 0 0 1 2.656-1.1l1.744.722a2.034 2.034 0 0 0 1.555-.001l1.746-.72a2.034 2.034 0 0 1 2.655 1.1l.723 1.746v-.003z"/></symbol><symbol id="icon-chart-breakout-circle" viewBox="0 0 32 32"><path d="M2.667 16c0 7.364 5.97 13.333 13.333 13.333 6.914 0 12.599-5.262 13.268-12L14.667 2.732c-6.738.669-12 6.354-12 13.268z"/><path fill="none" stroke="#000" style="stroke:var(--color1,#000)" stroke-linejoin="round" stroke-linecap="round" stroke-width="3.2" d="M20.667 4.666v-2m5.252 3.415 1.414-1.414m.014 6.666h2m-.079 6c-.669 6.738-6.354 12-13.268 12-7.364 0-13.333-5.97-13.333-13.333 0-6.914 5.262-12.599 12-13.268M16 10.666h5.333v5.333m-.507-5.333c-3.139 4.437-8.311 7.333-14.16 7.333-1.337 0-2.639-.151-3.889-.438"/></symbol><symbol id="icon-colors" viewBox="0 0 32 32"><path d="M18.107 18.386a8.003 8.003 0 0 1-9.546-4.773 8 8 0 1 0 9.546 4.773z"/><path fill="none" stroke="#000" style="stroke:var(--color1,#000)" stroke-linejoin="round" stroke-linecap="round" stroke-width="3.2" d="M16 27.296a8 8 0 1 0 7.439-13.683m-14.879 0a8 8 0 1 0 9.546 4.773M24 10.666a8 8 0 1 1-16 0 8 8 0 0 1 16 0z"/></symbol><symbol id="icon-dataflow" viewBox="0 0 32 32"><path d="M4 6.666c0-1.242 0-1.864.203-2.354a2.668 2.668 0 0 1 1.443-1.443c.49-.203 1.111-.203 2.354-.203h16c1.243 0 1.864 0 2.354.203.653.271 1.173.79 1.443 1.443.203.49.203 1.111.203 2.354s0 1.864-.203 2.354a2.668 2.668 0 0 1-1.443 1.443c-.49.203-1.111.203-2.354.203H8c-1.242 0-1.864 0-2.354-.203A2.668 2.668 0 0 1 4.203 9.02C4 8.53 4 7.909 4 6.666zM5.333 29.333a2.667 2.667 0 1 0 0-5.334 2.667 2.667 0 0 0 0 5.334zM26.667 29.333a2.667 2.667 0 1 0 0-5.334 2.667 2.667 0 0 0 0 5.334zM16 29.333a2.667 2.667 0 1 0 0-5.334 2.667 2.667 0 0 0 0 5.334z"/><path fill="none" stroke="#000" style="stroke:var(--color1,#000)" stroke-linejoin="round" stroke-linecap="round" stroke-width="3.2" d="M5.333 24v-.267c0-2.24 0-3.36.436-4.216a3.991 3.991 0 0 1 1.748-1.748c.856-.436 1.976-.436 4.216-.436h8.533c2.24 0 3.36 0 4.216.436a3.991 3.991 0 0 1 1.748 1.748c.436.856.436 1.976.436 4.216V24M5.333 24a2.667 2.667 0 1 0 0 5.334 2.667 2.667 0 0 0 0-5.334zm21.334 0a2.667 2.667 0 1 0 0 5.334 2.667 2.667 0 0 0 0-5.334zM16 24a2.667 2.667 0 1 0 0 5.334A2.667 2.667 0 0 0 16 24zm0 0V10.667m-8-.001h16c1.243 0 1.864 0 2.354-.203a2.668 2.668 0 0 0 1.443-1.443C28 8.53 28 7.909 28 6.666s0-1.864-.203-2.354a2.668 2.668 0 0 0-1.443-1.443c-.49-.203-1.111-.203-2.354-.203H8c-1.242 0-1.864 0-2.354.203a2.668 2.668 0 0 0-1.443 1.443C4 4.802 4 5.423 4 6.666s0 1.864.203 2.354c.271.653.79 1.173 1.443 1.443.49.203 1.111.203 2.354.203z"/></symbol><symbol id="icon-image" viewBox="0 0 32 32"><path d="m8.488 26.179 11.337-11.337c.528-.528.792-.792 1.096-.891.268-.087.556-.087.824 0 .304.099.568.363 1.096.891L27.999 20v1.6c0 2.24 0 3.36-.436 4.216a4.001 4.001 0 0 1-1.748 1.748c-.856.436-1.976.436-4.216.436H9.241c-.808 0-1.212 0-1.399-.16a.67.67 0 0 1-.232-.559c.019-.245.305-.531.876-1.102zM11.333 14a2.667 2.667 0 1 0 0-5.334 2.667 2.667 0 0 0 0 5.334z"/><path fill="none" stroke="#000" style="stroke:var(--color1,#000)" stroke-linejoin="round" stroke-linecap="round" stroke-width="3.2" d="M21.6 28H9.242c-.808 0-1.212 0-1.399-.16a.67.67 0 0 1-.232-.559c.019-.245.305-.531.876-1.102l11.337-11.337c.528-.528.792-.792 1.096-.891.268-.087.556-.087.824 0 .304.099.568.363 1.096.891L27.998 20v1.6M21.6 28c2.24 0 3.36 0 4.216-.436a4.001 4.001 0 0 0 1.748-1.748C28 24.96 28 23.84 28 21.6M21.6 28H10.4c-2.24 0-3.36 0-4.216-.436a3.996 3.996 0 0 1-1.748-1.748C4 24.96 4 23.84 4 21.6V10.4c0-2.24 0-3.36.436-4.216a3.991 3.991 0 0 1 1.748-1.748C7.04 4 8.16 4 10.4 4h11.2c2.24 0 3.36 0 4.216.436a3.996 3.996 0 0 1 1.748 1.748C28 7.04 28 8.16 28 10.4v11.2M14 11.333a2.667 2.667 0 1 1-5.334 0 2.667 2.667 0 0 1 5.334 0z"/></symbol><symbol id="icon-inbox" viewBox="0 0 32 32"><path d="M20.045 5.334h-8.089c-1.436 0-2.154 0-2.788.219a4.004 4.004 0 0 0-1.495.924c-.479.469-.8 1.111-1.442 2.395l-3.564 7.129h5.176c.914 0 1.749.516 2.157 1.333s1.244 1.333 2.157 1.333h7.685c.914 0 1.749-.516 2.157-1.333s1.244-1.333 2.157-1.333h5.176l-3.564-7.129c-.642-1.284-.963-1.926-1.442-2.396a4.008 4.008 0 0 0-1.495-.924c-.634-.219-1.352-.219-2.788-.219z"/><path fill="none" stroke="#000" style="stroke:var(--color1,#000)" stroke-linejoin="round" stroke-linecap="round" stroke-width="3.2" d="M3.333 16h4.509c.914 0 1.749.516 2.157 1.333s1.244 1.333 2.157 1.333h7.685c.914 0 1.749-.516 2.157-1.333S23.242 16 24.155 16h4.509M11.956 5.334h8.089c1.436 0 2.154 0 2.788.219.56.193 1.071.509 1.495.924.479.469.8 1.111 1.442 2.395l2.889 5.777c.252.504.378.756.467 1.02.079.235.136.476.17.721.039.276.039.558.039 1.121v2.756c0 2.24 0 3.36-.436 4.216a3.996 3.996 0 0 1-1.748 1.748c-.856.436-1.976.436-4.216.436H9.068c-2.24 0-3.36 0-4.216-.436a3.991 3.991 0 0 1-1.748-1.748c-.436-.856-.436-1.976-.436-4.216v-2.756c0-.563 0-.845.039-1.121.034-.245.091-.486.17-.721.089-.264.215-.516.467-1.02l2.889-5.777c.642-1.284.963-1.926 1.442-2.396.424-.415.934-.73 1.495-.924.634-.219 1.352-.219 2.788-.219z"/></symbol><symbol id="icon-line-chart-up" viewBox="0 0 32 32"><path d="M4 10.4c0-2.24 0-3.36.436-4.216a3.991 3.991 0 0 1 1.748-1.748C7.04 4 8.16 4 10.4 4h11.2c2.24 0 3.36 0 4.216.436a3.996 3.996 0 0 1 1.748 1.748C28 7.04 28 8.16 28 10.4v11.2c0 2.24 0 3.36-.436 4.216a4.001 4.001 0 0 1-1.748 1.748C24.96 28 23.84 28 21.6 28H10.4c-2.24 0-3.36 0-4.216-.436a3.996 3.996 0 0 1-1.748-1.748C4 24.96 4 23.84 4 21.6V10.4z"/><path fill="none" stroke="#000" style="stroke:var(--color1,#000)" stroke-linejoin="round" stroke-linecap="round" stroke-width="3.2" d="m22.667 12-7.246 7.246c-.264.264-.396.396-.548.445a.66.66 0 0 1-.412 0c-.152-.049-.284-.181-.548-.445l-2.492-2.492c-.264-.264-.396-.396-.548-.445a.66.66 0 0 0-.412 0c-.152.049-.284.181-.548.445l-5.912 5.912M22.667 12h-5.333m5.333 0v5.333M10.4 28h11.2c2.24 0 3.36 0 4.216-.436a4.001 4.001 0 0 0 1.748-1.748C28 24.96 28 23.84 28 21.6V10.4c0-2.24 0-3.36-.436-4.216a3.996 3.996 0 0 0-1.748-1.748C24.96 4 23.84 4 21.6 4H10.4c-2.24 0-3.36 0-4.216.436a3.991 3.991 0 0 0-1.748 1.748C4 7.04 4 8.16 4 10.4v11.2c0 2.24 0 3.36.436 4.216a3.996 3.996 0 0 0 1.748 1.748C7.04 28 8.16 28 10.4 28z"/></symbol><symbol id="icon-magic-wand-01" viewBox="0 0 32 32"><path d="M4.175 26.842c-.528-.528-.792-.792-.891-1.096a1.333 1.333 0 0 1 0-.824c.099-.304.363-.568.891-1.096l9.158-9.158 4 4-9.158 9.158c-.528.528-.792.792-1.096.891a1.333 1.333 0 0 1-.824 0c-.304-.099-.568-.363-1.096-.891l-.983-.983z"/><path fill="none" stroke="#000" style="stroke:var(--color1,#000)" stroke-linejoin="round" stroke-linecap="round" stroke-width="3.2" d="m17.334 18.666-4-4m6.68-10v-2m5.252 4.081 1.414-1.414m-1.414 12 1.414 1.414m-11.999-12-1.414-1.414M27.347 12h2M8.175 27.825l12.316-12.316c.528-.528.792-.792.891-1.096a1.333 1.333 0 0 0 0-.824c-.099-.304-.363-.568-.891-1.096l-.983-.983c-.528-.528-.792-.792-1.096-.891a1.333 1.333 0 0 0-.824 0c-.304.099-.568.363-1.096.891L4.176 23.826c-.528.528-.792.792-.891 1.096a1.333 1.333 0 0 0 0 .824c.099.304.363.568.891 1.096l.983.983c.528.528.792.792 1.096.891.268.087.556.087.824 0 .304-.099.568-.363 1.096-.891z"/></symbol><symbol id="icon-notification" viewBox="0 0 32 32"><path d="M26.828 5.172a4 4 0 1 1-5.658 5.657 4 4 0 0 1 5.658-5.657z"/><path fill="none" stroke="#000" style="stroke:var(--color1,#000)" stroke-linejoin="round" stroke-linecap="round" stroke-width="3.2" d="M15.61 4.049C9.846 4.582 5.333 9.431 5.333 15.334c0 1.267.208 2.485.591 3.622.144.428.216.642.229.806a1.2 1.2 0 0 1-.037.434c-.041.16-.13.326-.31.658l-2.181 4.037c-.311.576-.467.864-.432 1.086.03.194.144.364.311.466.192.117.517.083 1.169.016l6.828-.706c.207-.021.31-.032.404-.028.093.004.158.012.248.033.092.021.207.066.439.155 1.264.487 2.637.754 4.073.754 5.908 0 10.76-4.52 11.286-10.291M26.829 5.172a4 4 0 1 1-5.658 5.657 4 4 0 0 1 5.658-5.657z"/></symbol><symbol id="icon-presentation-chart" viewBox="0 0 32 32"><path d="M28 14.933V4H4v10.933c0 2.24 0 3.36.436 4.216a3.991 3.991 0 0 0 1.748 1.748c.856.436 1.976.436 4.216.436h11.2c2.24 0 3.36 0 4.216-.436a3.996 3.996 0 0 0 1.748-1.748c.436-.856.436-1.976.436-4.216z"/><path fill="none" stroke="#000" style="stroke:var(--color1,#000)" stroke-linejoin="round" stroke-linecap="round" stroke-width="3.2" d="M16 21.333V28m8 0-5.269-4.39c-.972-.81-1.457-1.215-2-1.369a2.674 2.674 0 0 0-1.463 0c-.542.155-1.028.56-2 1.369L7.999 28m2.668-13.333V16M16 12v4m5.333-6.667V16m8-12H2.666M4 4h24v10.933c0 2.24 0 3.36-.436 4.216a3.996 3.996 0 0 1-1.748 1.748c-.856.436-1.976.436-4.216.436H10.4c-2.24 0-3.36 0-4.216-.436a3.991 3.991 0 0 1-1.748-1.748C4 18.293 4 17.173 4 14.933V4z"/></symbol><symbol id="icon-route" viewBox="0 0 32 32"><path d="M6.667 10.666a4 4 0 1 0 0-8 4 4 0 0 0 0 8zM25.333 29.333a4 4 0 1 0 0-8 4 4 0 0 0 0 8z"/><path fill="none" stroke="#000" style="stroke:var(--color1,#000)" stroke-linejoin="round" stroke-linecap="round" stroke-width="3.2" d="M15.333 6.666h.579c4.063 0 6.095 0 6.866.73.667.631.962 1.56.782 2.46-.208 1.041-1.867 2.214-5.184 4.56l-5.419 3.833c-3.317 2.346-4.976 3.519-5.184 4.56-.18.9.115 1.829.782 2.46.771.73 2.803.73 6.866.73h1.246m-6-19.333a4 4 0 1 1-8 0 4 4 0 0 1 8 0zm18.666 18.667a4 4 0 1 1-8 0 4 4 0 0 1 8 0z"/></symbol><symbol id="icon-search" viewBox="0 0 32 32"><path d="M15.333 26.667c6.259 0 11.333-5.074 11.333-11.333S21.592 4.001 15.333 4.001 4 9.075 4 15.334s5.074 11.333 11.333 11.333z"/><path fill="none" stroke="#000" style="stroke:var(--color1,#000)" stroke-linejoin="round" stroke-linecap="round" stroke-width="3.2" d="m28 28-4.667-4.667m3.334-8c0 6.259-5.074 11.333-11.333 11.333S4.001 21.592 4.001 15.333 9.075 4 15.334 4s11.333 5.074 11.333 11.333z"/></symbol><symbol id="icon-shield-dollar" viewBox="0 0 32 32"><path d="M15.069 28.82c.295.172.443.258.651.303.162.035.397.035.559 0 .208-.045.356-.131.651-.303 2.597-1.515 9.736-6.275 9.736-12.82V9.623c0-1.066 0-1.599-.174-2.057a2.66 2.66 0 0 0-.729-1.052c-.368-.324-.867-.511-1.865-.886l-7.149-2.681c-.277-.104-.416-.156-.558-.177a1.35 1.35 0 0 0-.381 0c-.143.021-.281.073-.558.177L8.103 5.628c-.998.374-1.497.561-1.865.886a2.66 2.66 0 0 0-.729 1.052c-.174.458-.174.991-.174 2.057V16c0 6.545 7.139 11.304 9.736 12.82z"/><path fill="none" stroke="#000" style="stroke:var(--color1,#000)" stroke-linejoin="round" stroke-linecap="round" stroke-width="3.2" d="M12.284 19.333a2.487 2.487 0 0 0 2.205 1.333h2.845a2.667 2.667 0 1 0 0-5.334h-2.667a2.667 2.667 0 1 1 0-5.334h2.845a2.49 2.49 0 0 1 2.205 1.333M16 8v2m0 10.666v2M26.667 16c0 6.545-7.139 11.304-9.736 12.82-.295.172-.443.258-.651.303a1.501 1.501 0 0 1-.559 0c-.208-.045-.356-.131-.651-.303-2.597-1.515-9.736-6.275-9.736-12.82V9.623c0-1.066 0-1.599.174-2.057a2.66 2.66 0 0 1 .729-1.052c.368-.324.867-.511 1.865-.886l7.149-2.681c.277-.104.416-.156.558-.177a1.35 1.35 0 0 1 .381 0c.143.021.281.073.558.177l7.149 2.681c.998.374 1.497.561 1.865.886.325.286.575.647.729 1.052.174.458.174.991.174 2.057V16z"/></symbol><symbol id="icon-video" viewBox="0 0 32 32"><path stroke-linejoin="round" stroke-linecap="round" stroke-width="3.2" d="M2.667 13.066c0-2.24 0-3.36.436-4.216a3.996 3.996 0 0 1 1.748-1.748c.856-.436 1.976-.436 4.216-.436h7.2c2.24 0 3.36 0 4.216.436a3.991 3.991 0 0 1 1.748 1.748c.436.856.436 1.976.436 4.216v5.867c0 2.24 0 3.36-.436 4.216a4.001 4.001 0 0 1-1.748 1.748c-.856.436-1.976.436-4.216.436h-7.2c-2.24 0-3.36 0-4.216-.436a3.996 3.996 0 0 1-1.748-1.748c-.436-.856-.436-1.976-.436-4.216v-5.867z"/><path fill="none" stroke="#000" style="stroke:var(--color1,#000)" stroke-linejoin="round" stroke-linecap="round" stroke-width="3.2" d="M29.333 11.908c0-.808 0-1.212-.16-1.399a.67.67 0 0 0-.559-.232c-.245.019-.531.305-1.102.876l-4.846 4.846 4.846 4.846c.571.571.857.857 1.102.876a.663.663 0 0 0 .559-.232c.16-.187.16-.591.16-1.399v-8.183z"/><path fill="none" stroke="#000" style="stroke:var(--color1,#000)" stroke-linejoin="round" stroke-linecap="round" stroke-width="3.2" d="M2.667 13.066c0-2.24 0-3.36.436-4.216a3.996 3.996 0 0 1 1.748-1.748c.856-.436 1.976-.436 4.216-.436h7.2c2.24 0 3.36 0 4.216.436a3.991 3.991 0 0 1 1.748 1.748c.436.856.436 1.976.436 4.216v5.867c0 2.24 0 3.36-.436 4.216a4.001 4.001 0 0 1-1.748 1.748c-.856.436-1.976.436-4.216.436h-7.2c-2.24 0-3.36 0-4.216-.436a3.996 3.996 0 0 1-1.748-1.748c-.436-.856-.436-1.976-.436-4.216v-5.867z"/></symbol><symbol id="icon-logo-blue" viewBox="0 0 68 32"><path fill="#3383fe" style="fill:var(--color3,#3383fe)" d="m5.253 3.947 6.511 11.748c0-3.499.333-4.48 1.313-6.051.027-.045.056-.089.085-.135.358-.566.799-1.217 1.334-2.088.068-.13.13-.258.189-.385 2.098-4.436-.082-6.973-.73-6.942-.667.032-2.16 2.321-4.16 2.321a7.555 7.555 0 0 0-4.223 1.293c-.209.143-.319.24-.319.24h.001z"/><path fill="#3383fe" style="fill:var(--color3,#3383fe)" d="M13.16 9.509c.358-.566.799-1.217 1.334-2.088.068-.13.13-.258.189-.385-.448-.383-1.035-.637-1.595-.996-.541-.343-.638-.961-1.088-1.385-1.849-1.743-4.454-2.268-6.429-.947l-.087.061A4.988 4.988 0 0 0 4.3 4.951c-.573.847-1.03 1.928-1.372 3.244a30.994 30.994 0 0 0-.958 9.417c.076 1.496.172 2.993.283 4.489.053.708.003 1.534-.147 2.479-.206 1.108-.586 1.985-1.14 2.623-.36.417-.982.984-.968 1.548.012.491.553.73.979.783 1.846.235 3.978-.948 5.38-2.03.057-.044.11-.041.158.011 1.534 1.518 3.893 2.274 6.001 2.574l.701.089c.102.014.124-.021.066-.106-.337-.481-.367-1.186-.153-1.673.03-.07.053-.068.068.007.295 1.479 1.161 2.456 2.595 2.934a10.67 10.67 0 0 0 4.978.454c.508-.074.963-.22 1.369-.437a.254.254 0 0 0-.019-.458 4.28 4.28 0 0 1-1.184-.749c-.183-.162-.153-.257.092-.284 2.334-.25 4.53-.725 6.628-1.637a.186.186 0 0 1 .173.007 8.716 8.716 0 0 0 4.609 1.046c.687-.062 1.289-.24 1.805-.533a.228.228 0 0 0-.041-.413c-.912-.304-1.613-.938-2.1-1.902a62.221 62.221 0 0 0-1.081-2.044c-1.009-1.825-2.507-3.168-4.493-4.031a16.456 16.456 0 0 0-3.987-1.185 9.941 9.941 0 0 1-1.89-.497c-1.247-.465-2.351-1.013-3.313-1.643-.14-.101-2.803-2.064-3.627-5.154-.112-.521-.412-1.485-.639-2.236l.085-.135v-.001zM7.017 6.32a.636.636 0 0 1 1.272 0c0 .348-.285.632-.636.632s-.636-.284-.636-.632z"/><path fill="#3482fe" style="fill:var(--color4,#3482fe)" d="m21.776 12.113.904-2.018c.862.567 2.085.954 3.212.954s1.585-.318 1.585-.788c0-1.535-5.534-.414-5.534-4.01 0-1.728 1.418-3.138 4.31-3.138 1.265 0 2.572.29 3.532.844l-.848 2.033c-.932-.498-1.849-.747-2.697-.747-1.154 0-1.571.387-1.571.871 0 1.48 5.52.373 5.52 3.941 0 1.687-1.418 3.125-4.31 3.125-1.599 0-3.184-.429-4.102-1.064v-.002zM31.551 9.223c0-2.254 1.794-3.858 4.254-3.858s4.254 1.604 4.254 3.858-1.765 3.885-4.254 3.885-4.254-1.618-4.254-3.885zm5.838 0c0-1.134-.681-1.77-1.585-1.77s-1.585.636-1.585 1.77.695 1.798 1.585 1.798 1.585-.65 1.585-1.798zM41.505 9.223c0-2.254 1.794-3.858 4.324-3.858 1.71 0 3.017.76 3.532 2.06l-2.044 1.037c-.362-.705-.89-1.01-1.501-1.01-.918 0-1.64.636-1.64 1.77s.723 1.798 1.64 1.798c.612 0 1.14-.304 1.501-1.01l2.044 1.037c-.514 1.3-1.821 2.06-3.532 2.06-2.531 0-4.324-1.604-4.324-3.885v.001zM50.765 3.264c0-.788.639-1.397 1.613-1.397s1.613.567 1.613 1.355c0 .83-.639 1.438-1.613 1.438s-1.613-.608-1.613-1.397zm.292 2.226h2.641v7.494h-2.641V5.49zM63.167 8.822v4.162h-2.461v-.968c-.375.719-1.126 1.092-2.224 1.092-1.807 0-2.808-1.01-2.808-2.309 0-1.383 1.015-2.24 3.351-2.24h1.501c-.042-.76-.556-1.189-1.599-1.189-.722 0-1.529.249-2.044.65l-.89-1.784c.862-.567 2.141-.871 3.323-.871 2.447 0 3.851 1.078 3.851 3.457zm-2.641 1.757v-.65h-1.14c-.848 0-1.154.304-1.154.76s.362.76.987.76c.585 0 1.099-.277 1.307-.871v.001zM65.53 2.724h2.641v10.26H65.53V2.724zM36.417 25.001l.904-2.018c.862.567 2.085.954 3.212.954s1.585-.318 1.585-.788c0-1.535-5.534-.414-5.534-4.01 0-1.728 1.418-3.138 4.31-3.138 1.265 0 2.572.29 3.532.843l-.848 2.033c-.932-.498-1.849-.747-2.697-.747-1.154 0-1.571.387-1.571.871 0 1.48 5.52.373 5.52 3.941 0 1.687-1.418 3.125-4.31 3.125-1.599 0-3.184-.429-4.102-1.064v-.001zM54.491 22.789h-5.478c.223.76.876 1.203 1.849 1.203.737 0 1.224-.207 1.738-.65l1.39 1.438c-.723.802-1.78 1.217-3.212 1.217-2.683 0-4.421-1.645-4.421-3.885s1.765-3.858 4.143-3.858c2.225 0 4.032 1.41 4.032 3.885 0 .193-.027.443-.042.65zm-5.52-1.383h3.087c-.139-.788-.723-1.286-1.543-1.286s-1.39.497-1.544 1.286zM64.001 21.71v4.162h-2.46v-.968c-.375.719-1.126 1.093-2.225 1.093-1.807 0-2.808-1.01-2.808-2.309 0-1.383 1.015-2.24 3.351-2.24h1.501c-.042-.76-.556-1.189-1.598-1.189-.723 0-1.529.249-2.044.65l-.89-1.784c.862-.567 2.141-.871 3.323-.871 2.447 0 3.851 1.078 3.851 3.457zm-2.642 1.757v-.65h-1.141c-.848 0-1.154.304-1.154.76s.362.76.987.76c.584 0 1.099-.277 1.307-.871v.001zM65.698 15.613h2.641v10.26h-2.641v-10.26z"/><path fill="#fff" style="fill:var(--color5,#fff)" d="M7.939 5.715a.634.634 0 0 1-1.252.214.634.634 0 0 1 1.252-.214z"/></symbol></defs></svg>