<svg aria-hidden="true" style="width:0;height:0;position:absolute;overflow:hidden" xmlns="http://www.w3.org/2000/svg"><defs><symbol id="icon-facebook" viewBox="0 0 31 32"><path fill="#acb5bc" style="fill:var(--color1,#acb5bc)" d="M29.091 21.974a7.335 7.335 0 0 1-7.31 7.361l-12.437.043a7.335 7.335 0 0 1-7.361-7.31L1.94 9.647a7.335 7.335 0 0 1 7.31-7.361l12.437-.043a7.335 7.335 0 0 1 7.361 7.31l.043 12.421zm-7.352-5.94c1.463.026 1.368 2.032-.026 2.035-1.233.002-2.514.002-3.842 0a.077.077 0 0 0-.079.079v8.963c0 .101.085.182.188.18 1.731-.069 3.872.22 5.459-.362 2.588-.945 3.607-3.171 3.57-5.817a389.35 389.35 0 0 1 .005-10.529c.013-1.153-.119-2.101-.399-2.845-.834-2.205-2.829-3.392-5.149-3.377-4.083.029-8.127.029-12.125.005-2.226-.013-4.091 1.283-4.962 3.329-.227.537-.341 1.045-.341 1.521.005 3.872.002 8.029-.008 12.472-.002 1.395.358 2.562 1.082 3.501.69.894 1.553 1.5 2.586 1.818.69.214 1.699.304 3.022.272 1.712-.04 3.342-.04 4.893.002a.102.102 0 0 0 .105-.103l-.034-8.973c0-.109-.056-.161-.164-.154-.336.024-.68.043-1.037.061-1.63.082-1.759-2.151-.199-2.104.442.013.87.013 1.281-.002a.176.176 0 0 0 .169-.191c-.064-.913-.124-1.9.182-2.771.579-1.643 1.683-2.689 3.308-3.136.717-.199 1.633-.24 2.747-.13.495.05.762.323.802.82l.013.15c.05.654-.249 1.011-.9 1.072a7.624 7.624 0 0 1-1.159.019c-1.656-.095-2.995 1.157-2.94 2.856.013.392.008.78-.019 1.17a.143.143 0 0 0 .146.154c1.294-.013 2.569-.011 3.827.013l-.002.002z"/></symbol><symbol id="icon-google" viewBox="0 0 31 32"><path fill="#acb5bc" style="fill:var(--color1,#acb5bc)" d="M29.091 22.095a7.283 7.283 0 0 1-7.271 7.297l-12.562.022a7.284 7.284 0 0 1-7.297-7.271L1.939 9.528A7.283 7.283 0 0 1 9.21 2.231l12.562-.022a7.284 7.284 0 0 1 7.297 7.271l.022 12.615zM27.006 9.618a5.289 5.289 0 0 0-5.289-5.289H9.309A5.289 5.289 0 0 0 4.02 9.618v12.408a5.289 5.289 0 0 0 5.289 5.289h12.408a5.289 5.289 0 0 0 5.289-5.289V9.618z"/><path fill="#acb5bc" style="fill:var(--color1,#acb5bc)" d="M21.107 16.859a552.02 552.02 0 0 1-4.689.011c-1.462-.002-1.488-2.106.093-2.103 1.888.002 3.862.002 5.921.005.565 0 1.045.368 1.053.963.021 1.663-.369 3.103-1.17 4.318-1.706 2.592-4.101 3.846-7.186 3.761-3.602-.099-6.851-2.846-7.448-6.342-.517-3.032.273-5.538 2.377-7.517 2.886-2.719 7.395-2.83 10.477-.363.379.303.52.692.427 1.167-.162.822-1.106.929-1.697.499-2.263-1.645-4.509-1.809-6.734-.496-2.78 1.639-3.756 5.132-2.162 7.971 2.642 4.703 9.782 3.618 10.896-1.679.029-.13-.024-.195-.157-.195z"/></symbol><symbol id="icon-instagram" viewBox="0 0 31 32"><path fill="#acb5bc" style="fill:var(--color1,#acb5bc)" d="M29.069 22.083a7.305 7.305 0 0 1-7.319 7.293l-12.518-.022a7.305 7.305 0 0 1-7.293-7.319l.022-12.497A7.305 7.305 0 0 1 9.28 2.245l12.518.022a7.305 7.305 0 0 1 7.293 7.319l-.022 12.497zM27.01 9.657a5.295 5.295 0 0 0-5.285-5.304L9.329 4.331a5.295 5.295 0 0 0-5.304 5.285l-.022 12.333a5.295 5.295 0 0 0 5.285 5.304l12.397.022a5.295 5.295 0 0 0 5.304-5.285l.021-12.333z"/><path fill="#acb5bc" style="fill:var(--color1,#acb5bc)" d="M22.371 10.435a1.524 1.524 0 1 0 0-3.048 1.524 1.524 0 0 0 0 3.048zM21.544 15.79c0 3.347-2.71 6.058-6.058 6.058s-6.058-2.71-6.058-6.058c0-3.347 2.711-6.058 6.058-6.058s6.058 2.711 6.058 6.058zm-2.104-.005a3.954 3.954 0 1 0-7.907 0 3.954 3.954 0 0 0 7.907 0z"/></symbol><symbol id="icon-linkedin" viewBox="0 0 31 32"><path fill="#acb5bc" style="fill:var(--color1,#acb5bc)" d="M29.089 22.016a7.328 7.328 0 0 1-7.314 7.344l-12.476.022a7.327 7.327 0 0 1-7.339-7.319L1.938 9.596a7.328 7.328 0 0 1 7.314-7.344l12.476-.022a7.327 7.327 0 0 1 7.339 7.319l.022 12.467zM27.001 9.654a5.293 5.293 0 0 0-5.281-5.302L9.329 4.33A5.292 5.292 0 0 0 4.03 9.614l-.022 12.34a5.293 5.293 0 0 0 5.281 5.302l12.391.022a5.292 5.292 0 0 0 5.299-5.284l.022-12.34z"/><path fill="#acb5bc" style="fill:var(--color1,#acb5bc)" d="M10.101 11.701a1.37 1.37 0 1 0 0-2.739 1.37 1.37 0 0 0 0 2.739zM9.049 14.506l-.013 7.581a.998.998 0 0 0 .997 1h.064a.998.998 0 0 0 1-.997l.013-7.581a.998.998 0 0 0-.997-1h-.064a.998.998 0 0 0-1 .997zM20.04 13.917c.932.424 1.616 1.161 2.05 2.213.254.612.363 1.402.326 2.369a40.977 40.977 0 0 0 .008 3.351c.034.753-.313 1.153-1.041 1.198h-.043c-.681-.013-1.025-.365-1.033-1.063-.013-1.334-.005-2.683.024-4.05.011-.53-.101-.986-.337-1.368-.363-.586-.895-.906-1.597-.965a1.997 1.997 0 0 0-1.515.488 2.02 2.02 0 0 0-.599.848 2.64 2.64 0 0 0-.167.975c.008 1.312.015 2.683.019 4.111.002.683-.352 1.033-1.06 1.052-.013 0-.029 0-.043-.002-.707-.077-1.052-.472-1.028-1.185a47.967 47.967 0 0 0-.008-3.146c-.04-1.158.085-2.062.373-2.711.493-1.105 1.287-1.852 2.387-2.24 1.126-.397 2.22-.355 3.283.125z"/></symbol><symbol id="icon-pinterest" viewBox="0 0 31 32"><path fill="#acb5bc" style="fill:var(--color1,#acb5bc)" d="M29.091 15.811c0 7.496-6.08 13.576-13.576 13.576S1.939 23.307 1.939 15.811 8.019 2.235 15.515 2.235s13.576 6.08 13.576 13.576zm-19.164.995c.231.706-.151 1.427-.966 1.399-.517-.019-.86-.273-1.029-.762-.833-2.38-.39-4.981 1.351-6.926 2.921-3.259 8.329-3.686 11.747-.698 1.812 1.584 2.63 3.572 2.452 5.962-.159 2.15-1.375 4.227-3.16 5.387-2.157 1.399-4.464 1.629-6.923.695a.142.142 0 0 0-.191.101l-1.027 4.617c-.019.08.011.135.085.168.393.172.801.289 1.226.351 3.885.552 7.189-.446 9.909-2.991 2.828-2.648 4.19-6.751 3.383-10.495-.958-4.453-4.36-8.094-8.81-8.983-5.623-1.123-10.731 1.582-13.053 6.793-2.396 5.384.093 11.596 5.021 14.393.114.064.258 0 .284-.127.854-3.85 1.711-7.69 2.569-11.514.318-1.414 2.343-.945 2.033.469-.334 1.521-.69 3.158-1.07 4.912a.207.207 0 0 0 .119.233c1.775.801 3.468.714 5.073-.263 2.434-1.481 3.267-4.713 1.558-7.152-2.163-3.089-6.849-3.25-9.423-.663-1.412 1.417-1.796 3.115-1.156 5.092z"/></symbol><symbol id="icon-twitter" viewBox="0 0 31 32"><path fill="#acb5bc" style="fill:var(--color1,#acb5bc)" d="M11.9 9.974c.061.032.135 0 .154-.066 1.13-4.045 3.799-5.951 8.01-5.718 1.842.101 3.377.846 4.607 2.237.125.14.303.22.49.22l2.918-.002c.806 0 1.285.896.84 1.566-1.326 1.988-2.039 3.064-2.136 3.226a1.405 1.405 0 0 0-.209.662c-.114 1.962-.369 3.835-.991 5.745-1.575 4.832-5.36 8.252-10.277 9.278-5.447 1.134-10.086-.252-13.092-5.004-.509-.806-.31-1.389.599-1.749a12.918 12.918 0 0 1 1.837-.573.2.2 0 0 0 .116-.316c-1.524-2.065-2.344-4.329-2.458-6.794-.133-2.818.507-5.326 1.919-7.523.157-.244.329-.477.511-.7.496-.599 1.336-.334 1.689.275a13.294 13.294 0 0 0 5.471 5.236l.002-.001zm-4.294 9.639a.925.925 0 0 1-.369 1.468c-.713.273-1.455.511-2.221.716-.23.061-.273.189-.127.376 2.677 3.454 7.049 3.799 11.02 2.621 5.786-1.712 8.56-7.215 8.551-13.01 0-.352.101-.793.297-1.089a79.5 79.5 0 0 1 1.246-1.818c.056-.08-.002-.185-.101-.185l-1.641.029a1 1 0 0 1-.83-.419c-.793-1.1-1.704-1.805-3.109-1.994-3.483-.469-6.11 1.538-6.28 5.113-.053 1.087-.991 1.214-1.826.917-2.68-.954-4.944-2.722-6.6-5.028a.14.14 0 0 0-.241.024c-.877 1.938-1.177 3.981-.898 6.132.316 2.407 1.521 4.284 3.131 6.147h-.002z"/></symbol><symbol id="icon-youtube" viewBox="0 0 31 32"><path fill="#acb5bc" style="fill:var(--color1,#acb5bc)" d="M24.01 4.871c3.338.272 4.516 2.309 4.804 5.399.393 4.188.366 8.107-.074 11.753-.289 2.389-1.568 4.35-4.046 4.627-3.268.366-7.305.501-12.109.405a84.335 84.335 0 0 1-5.395-.292c-2.406-.205-4.08-1.123-4.672-3.492a17.133 17.133 0 0 1-.455-3.179 69.2 69.2 0 0 1 .109-9.826c.214-2.555 1.206-4.884 4.051-5.272a36.521 36.521 0 0 1 3.013-.284c5.176-.275 10.1-.222 14.775.161zm2.934 5.486c-.142-1.614-.711-3.352-2.608-3.526-5.366-.493-10.852-.534-16.456-.118-2.11.154-3.42.547-3.704 2.88-.497 4.073-.499 8.232-.005 12.483.2 1.712 1.156 2.634 2.873 2.772 5.534.436 10.796.467 15.787.099 1.197-.089 1.989-.22 2.377-.393.773-.349 1.264-.956 1.472-1.821.205-.86.342-1.967.412-3.328a66.274 66.274 0 0 0-.147-9.049z"/><path fill="#acb5bc" style="fill:var(--color1,#acb5bc)" d="m13.452 11.193 6.611 3.812a.932.932 0 0 1 0 1.614l-6.611 3.812a.932.932 0 0 1-1.397-.807v-7.625a.932.932 0 0 1 1.397-.806zm.616 2.599a.1.1 0 0 0-.149.089l.012 3.875c.002.079.085.128.152.089l3.432-1.951a.102.102 0 0 0 0-.176l-3.447-1.926z"/></symbol></defs></svg>