<svg aria-hidden="true" style="position: absolute; width: 0; height: 0; overflow: hidden;" version="1.1" xmlns="http://www.w3.org/2000/svg" xmlns:xlink="http://www.w3.org/1999/xlink">
<defs>
<symbol id="icon-activity-heart" viewBox="0 0 32 32">
<path d="M15.991 6.848c-2.666-3.117-7.111-3.955-10.451-1.101s-3.81 7.625-1.187 11c1.981 2.549 7.609 7.667 10.245 10.019 0.485 0.432 0.727 0.648 1.010 0.734 0.246 0.074 0.52 0.074 0.766 0 0.284-0.085 0.526-0.301 1.010-0.734 2.636-2.352 8.264-7.47 10.245-10.019 2.623-3.375 2.21-8.177-1.187-11.001s-7.785-2.015-10.451 1.101z"></path>
<path fill="none" stroke="#000" style="stroke: var(--color1, #000)" stroke-linejoin="round" stroke-linecap="round" stroke-miterlimit="4" stroke-width="3.2" d="M20.667 15.333h-1.333l-2 4-2.667-8-2 4h-1.333M15.991 6.848c-2.666-3.117-7.111-3.955-10.451-1.101s-3.81 7.625-1.187 11c1.981 2.549 7.609 7.667 10.245 10.019 0.485 0.432 0.727 0.648 1.010 0.734 0.246 0.074 0.52 0.074 0.766 0 0.284-0.085 0.526-0.301 1.010-0.734 2.636-2.352 8.264-7.47 10.245-10.019 2.623-3.375 2.21-8.177-1.187-11.001s-7.785-2.015-10.451 1.101z"></path>
</symbol>
<symbol id="icon-announcement" viewBox="0 0 32 32">
<path d="M13.667 7.334h-4.6c-2.24 0-3.36 0-4.216 0.436-0.753 0.384-1.365 0.995-1.748 1.748-0.436 0.856-0.436 1.976-0.436 4.216v1.6c0 1.243 0 1.864 0.203 2.354 0.271 0.653 0.79 1.173 1.443 1.443 0.49 0.203 1.111 0.203 2.354 0.203v5.667c0 0.309 0 0.464 0.013 0.595 0.125 1.266 1.126 2.268 2.392 2.392 0.13 0.013 0.285 0.013 0.595 0.013s0.464 0 0.595-0.013c1.266-0.125 2.268-1.126 2.392-2.392 0.013-0.13 0.013-0.285 0.013-0.595v-5.667h1c2.355 0 5.236 1.263 7.459 2.474 1.297 0.707 1.945 1.060 2.37 1.008 0.394-0.048 0.692-0.225 0.922-0.548 0.249-0.348 0.249-1.044 0.249-2.437v-12.997c0-1.392 0-2.089-0.249-2.437-0.231-0.323-0.529-0.499-0.922-0.548-0.425-0.052-1.073 0.301-2.37 1.008-2.223 1.212-5.104 2.474-7.459 2.474z"></path>
<path fill="none" stroke="#000" style="stroke: var(--color1, #000)" stroke-linejoin="round" stroke-linecap="round" stroke-miterlimit="4" stroke-width="3.2" d="M29.333 10.667v5.333M13.667 7.334h-4.6c-2.24 0-3.36 0-4.216 0.436-0.753 0.384-1.365 0.995-1.748 1.748-0.436 0.856-0.436 1.976-0.436 4.216v1.6c0 1.243 0 1.864 0.203 2.354 0.271 0.653 0.79 1.173 1.443 1.443 0.49 0.203 1.111 0.203 2.354 0.203v5.667c0 0.309 0 0.464 0.013 0.595 0.125 1.266 1.126 2.268 2.392 2.392 0.13 0.013 0.285 0.013 0.595 0.013s0.464 0 0.595-0.013c1.266-0.125 2.268-1.126 2.392-2.392 0.013-0.13 0.013-0.285 0.013-0.595v-5.667h1c2.355 0 5.236 1.263 7.459 2.474 1.297 0.707 1.945 1.060 2.37 1.008 0.394-0.048 0.692-0.225 0.922-0.548 0.249-0.348 0.249-1.044 0.249-2.437v-12.997c0-1.392 0-2.089-0.249-2.437-0.231-0.323-0.529-0.499-0.922-0.548-0.425-0.052-1.073 0.301-2.37 1.008-2.223 1.212-5.104 2.474-7.459 2.474z"></path>
</symbol>
<symbol id="icon-arrow-down" viewBox="0 0 32 32">
<path d="M30.24 10.438c0.333 0.375 0.333 0.729 0 1.063l-13.125 13.125c-0.333 0.333-0.667 0.333-1 0l-13.125-13.125c-0.333-0.333-0.333-0.688 0-1.063l1.25-1.188c0.333-0.375 0.688-0.375 1.063 0l11.313 11.25 11.313-11.25c0.375-0.375 0.729-0.375 1.062 0l1.25 1.188z"></path>
</symbol>
<symbol id="icon-arrow-up" viewBox="0 0 32 32">
<path fill="#f89e52" style="fill: var(--color2, #f89e52)" d="M2.78 21.563c-0.333-0.375-0.333-0.729 0-1.063l13.125-13.125c0.333-0.333 0.667-0.333 1 0l13.125 13.125c0.333 0.333 0.333 0.687 0 1.063l-1.25 1.187c-0.333 0.375-0.688 0.375-1.063 0l-11.312-11.25-11.313 11.25c-0.375 0.375-0.729 0.375-1.063 0l-1.25-1.187z"></path>
</symbol>
<symbol id="icon-award" viewBox="0 0 32 32">
<path d="M10.491 20.613l-1.158 8.72 6.118-3.671c0.2-0.12 0.299-0.18 0.406-0.203 0.094-0.021 0.192-0.021 0.286 0 0.107 0.023 0.206 0.083 0.406 0.203l6.118 3.671-1.157-8.724-0.332 0.802c-0.206 0.498-0.602 0.894-1.1 1.1s-1.058 0.206-1.556 0l-1.744-0.722c-0.498-0.206-1.057-0.205-1.555 0.001l-1.745 0.722c-0.498 0.206-1.057 0.206-1.555-0s-0.893-0.601-1.1-1.099l-0.331-0.8z"></path>
<path fill="none" stroke="#000" style="stroke: var(--color1, #000)" stroke-linejoin="round" stroke-linecap="round" stroke-miterlimit="4" stroke-width="3.2" d="M10.492 20.613l-1.158 8.72 6.118-3.671c0.2-0.12 0.299-0.18 0.406-0.203 0.094-0.021 0.192-0.021 0.286 0 0.106 0.023 0.206 0.083 0.406 0.203l6.118 3.671-1.157-8.724M21.901 5.665c0.206 0.498 0.601 0.894 1.099 1.101l1.745 0.723c0.498 0.206 0.894 0.602 1.1 1.1s0.206 1.058 0 1.556l-0.722 1.744c-0.206 0.498-0.207 1.058 0.001 1.556l0.721 1.744c0.102 0.247 0.155 0.511 0.155 0.778s-0.053 0.531-0.155 0.778c-0.102 0.247-0.252 0.471-0.441 0.66s-0.413 0.339-0.66 0.441l-1.744 0.722c-0.498 0.206-0.894 0.601-1.1 1.099l-0.723 1.745c-0.206 0.498-0.602 0.894-1.1 1.1s-1.058 0.206-1.556 0l-1.744-0.722c-0.498-0.206-1.057-0.205-1.555 0.001l-1.745 0.722c-0.498 0.206-1.057 0.206-1.555-0s-0.893-0.601-1.1-1.099l-0.723-1.746c-0.206-0.498-0.601-0.894-1.099-1.101l-1.745-0.723c-0.498-0.206-0.893-0.602-1.1-1.1s-0.207-1.057-0.001-1.555l0.722-1.744c0.206-0.498 0.205-1.057-0.001-1.555l-0.721-1.746c-0.102-0.247-0.155-0.511-0.155-0.778s0.053-0.531 0.155-0.778c0.102-0.247 0.252-0.471 0.441-0.66s0.413-0.339 0.66-0.441l1.744-0.722c0.498-0.206 0.893-0.601 1.1-1.098l0.723-1.745c0.206-0.498 0.602-0.894 1.1-1.1s1.058-0.206 1.556 0l1.744 0.722c0.498 0.206 1.058 0.205 1.555-0.001l1.746-0.72c0.498-0.206 1.057-0.206 1.555 0s0.894 0.602 1.1 1.1l0.723 1.746-0-0.003z"></path>
</symbol>
<symbol id="icon-chart-breakout-circle" viewBox="0 0 32 32">
<path d="M2.667 16c0 7.364 5.97 13.333 13.333 13.333 6.914 0 12.599-5.262 13.268-12l-14.601-14.601c-6.738 0.669-12 6.354-12 13.268z"></path>
<path fill="none" stroke="#000" style="stroke: var(--color1, #000)" stroke-linejoin="round" stroke-linecap="round" stroke-miterlimit="4" stroke-width="3.2" d="M20.667 4.666v-2M25.919 6.081l1.414-1.414M27.347 11.333h2M29.268 17.333c-0.669 6.738-6.354 12-13.268 12-7.364 0-13.333-5.97-13.333-13.333 0-6.914 5.262-12.599 12-13.268M16 10.666h5.333v5.333M20.826 10.666c-3.139 4.437-8.311 7.333-14.16 7.333-1.337 0-2.639-0.151-3.889-0.438"></path>
</symbol>
<symbol id="icon-colors" viewBox="0 0 32 32">
<path d="M18.107 18.386c-0.671 0.183-1.377 0.28-2.106 0.28-3.378 0-6.266-2.093-7.44-5.053-3.396 0.925-5.894 4.031-5.894 7.72 0 4.418 3.582 8 8 8s8-3.582 8-8c0-1.041-0.199-2.035-0.56-2.947z"></path>
<path fill="none" stroke="#000" style="stroke: var(--color1, #000)" stroke-linejoin="round" stroke-linecap="round" stroke-miterlimit="4" stroke-width="3.2" d="M16 27.296c1.415 1.267 3.284 2.037 5.333 2.037 4.418 0 8-3.582 8-8 0-3.689-2.497-6.795-5.894-7.72M8.56 13.613c-3.396 0.925-5.894 4.031-5.894 7.72 0 4.418 3.582 8 8 8s8-3.582 8-8c0-1.041-0.199-2.035-0.56-2.947M24 10.666c0 4.418-3.582 8-8 8s-8-3.582-8-8 3.582-8 8-8c4.418 0 8 3.582 8 8z"></path>
</symbol>
<symbol id="icon-dataflow" viewBox="0 0 32 32">
<path d="M4 6.666c0-1.242 0-1.864 0.203-2.354 0.271-0.653 0.79-1.173 1.443-1.443 0.49-0.203 1.111-0.203 2.354-0.203h16c1.243 0 1.864 0 2.354 0.203 0.653 0.271 1.173 0.79 1.443 1.443 0.203 0.49 0.203 1.111 0.203 2.354s0 1.864-0.203 2.354c-0.271 0.653-0.79 1.173-1.443 1.443-0.49 0.203-1.111 0.203-2.354 0.203h-16c-1.242 0-1.864 0-2.354-0.203-0.653-0.271-1.173-0.79-1.443-1.443-0.203-0.49-0.203-1.111-0.203-2.354z"></path>
<path d="M5.333 29.333c1.473 0 2.667-1.194 2.667-2.667s-1.194-2.667-2.667-2.667c-1.473 0-2.667 1.194-2.667 2.667s1.194 2.667 2.667 2.667z"></path>
<path d="M26.667 29.333c1.473 0 2.667-1.194 2.667-2.667s-1.194-2.667-2.667-2.667c-1.473 0-2.667 1.194-2.667 2.667s1.194 2.667 2.667 2.667z"></path>
<path d="M16 29.333c1.473 0 2.667-1.194 2.667-2.667s-1.194-2.667-2.667-2.667c-1.473 0-2.667 1.194-2.667 2.667s1.194 2.667 2.667 2.667z"></path>
<path fill="none" stroke="#000" style="stroke: var(--color1, #000)" stroke-linejoin="round" stroke-linecap="round" stroke-miterlimit="4" stroke-width="3.2" d="M5.333 24v-0.267c0-2.24 0-3.36 0.436-4.216 0.383-0.753 0.995-1.365 1.748-1.748 0.856-0.436 1.976-0.436 4.216-0.436h8.533c2.24 0 3.36 0 4.216 0.436 0.753 0.383 1.365 0.995 1.748 1.748 0.436 0.856 0.436 1.976 0.436 4.216v0.267M5.333 24c-1.473 0-2.667 1.194-2.667 2.667s1.194 2.667 2.667 2.667c1.473 0 2.667-1.194 2.667-2.667s-1.194-2.667-2.667-2.667zM26.667 24c-1.473 0-2.667 1.194-2.667 2.667s1.194 2.667 2.667 2.667c1.473 0 2.667-1.194 2.667-2.667s-1.194-2.667-2.667-2.667zM16 24c-1.473 0-2.667 1.194-2.667 2.667s1.194 2.667 2.667 2.667c1.473 0 2.667-1.194 2.667-2.667s-1.194-2.667-2.667-2.667zM16 24v-13.333M8 10.666h16c1.243 0 1.864 0 2.354-0.203 0.653-0.271 1.173-0.79 1.443-1.443 0.203-0.49 0.203-1.111 0.203-2.354s0-1.864-0.203-2.354c-0.271-0.653-0.79-1.173-1.443-1.443-0.49-0.203-1.111-0.203-2.354-0.203h-16c-1.242 0-1.864 0-2.354 0.203-0.653 0.271-1.173 0.79-1.443 1.443-0.203 0.49-0.203 1.111-0.203 2.354s0 1.864 0.203 2.354c0.271 0.653 0.79 1.173 1.443 1.443 0.49 0.203 1.111 0.203 2.354 0.203z"></path>
</symbol>
<symbol id="icon-image" viewBox="0 0 32 32">
<path d="M8.488 26.179l11.337-11.337c0.528-0.528 0.792-0.792 1.096-0.891 0.268-0.087 0.556-0.087 0.824 0 0.304 0.099 0.568 0.363 1.096 0.891l5.158 5.158v1.6c0 2.24 0 3.36-0.436 4.216-0.384 0.753-0.996 1.365-1.748 1.748-0.856 0.436-1.976 0.436-4.216 0.436h-12.358c-0.808 0-1.212 0-1.399-0.16-0.162-0.139-0.248-0.347-0.232-0.559 0.019-0.245 0.305-0.531 0.876-1.102z"></path>
<path d="M11.333 14c1.473 0 2.667-1.194 2.667-2.667s-1.194-2.667-2.667-2.667c-1.473 0-2.667 1.194-2.667 2.667s1.194 2.667 2.667 2.667z"></path>
<path fill="none" stroke="#000" style="stroke: var(--color1, #000)" stroke-linejoin="round" stroke-linecap="round" stroke-miterlimit="4" stroke-width="3.2" d="M21.6 28h-12.358c-0.808 0-1.212 0-1.399-0.16-0.162-0.139-0.248-0.347-0.232-0.559 0.019-0.245 0.305-0.531 0.876-1.102l11.337-11.337c0.528-0.528 0.792-0.792 1.096-0.891 0.268-0.087 0.556-0.087 0.824 0 0.304 0.099 0.568 0.363 1.096 0.891l5.158 5.158v1.6M21.6 28c2.24 0 3.36 0 4.216-0.436 0.753-0.384 1.364-0.995 1.748-1.748 0.436-0.856 0.436-1.976 0.436-4.216M21.6 28h-11.2c-2.24 0-3.36 0-4.216-0.436-0.753-0.384-1.365-0.995-1.748-1.748-0.436-0.856-0.436-1.976-0.436-4.216v-11.2c0-2.24 0-3.36 0.436-4.216 0.383-0.753 0.995-1.365 1.748-1.748 0.856-0.436 1.976-0.436 4.216-0.436h11.2c2.24 0 3.36 0 4.216 0.436 0.753 0.383 1.364 0.995 1.748 1.748 0.436 0.856 0.436 1.976 0.436 4.216v11.2M14 11.333c0 1.473-1.194 2.667-2.667 2.667s-2.667-1.194-2.667-2.667c0-1.473 1.194-2.667 2.667-2.667s2.667 1.194 2.667 2.667z"></path>
</symbol>
<symbol id="icon-inbox" viewBox="0 0 32 32">
<path d="M20.045 5.334h-8.089c-1.436 0-2.154 0-2.788 0.219-0.56 0.193-1.071 0.509-1.495 0.924-0.479 0.469-0.8 1.111-1.442 2.395l-3.564 7.129h5.176c0.914 0 1.749 0.516 2.157 1.333s1.244 1.333 2.157 1.333h7.685c0.914 0 1.749-0.516 2.157-1.333s1.244-1.333 2.157-1.333h5.176l-3.564-7.129c-0.642-1.284-0.963-1.926-1.442-2.396-0.424-0.415-0.934-0.73-1.495-0.924-0.634-0.219-1.352-0.219-2.788-0.219z"></path>
<path fill="none" stroke="#000" style="stroke: var(--color1, #000)" stroke-linejoin="round" stroke-linecap="round" stroke-miterlimit="4" stroke-width="3.2" d="M3.333 16h4.509c0.914 0 1.749 0.516 2.157 1.333s1.244 1.333 2.157 1.333h7.685c0.914 0 1.749-0.516 2.157-1.333s1.244-1.333 2.157-1.333h4.509M11.956 5.334h8.089c1.436 0 2.154 0 2.788 0.219 0.56 0.193 1.071 0.509 1.495 0.924 0.479 0.469 0.8 1.111 1.442 2.395l2.889 5.777c0.252 0.504 0.378 0.756 0.467 1.020 0.079 0.235 0.136 0.476 0.17 0.721 0.039 0.276 0.039 0.558 0.039 1.121v2.756c0 2.24 0 3.36-0.436 4.216-0.384 0.753-0.995 1.365-1.748 1.748-0.856 0.436-1.976 0.436-4.216 0.436h-13.867c-2.24 0-3.36 0-4.216-0.436-0.753-0.383-1.365-0.995-1.748-1.748-0.436-0.856-0.436-1.976-0.436-4.216v-2.756c0-0.563 0-0.845 0.039-1.121 0.034-0.245 0.091-0.486 0.17-0.721 0.089-0.264 0.215-0.516 0.467-1.020l2.889-5.777c0.642-1.284 0.963-1.926 1.442-2.396 0.424-0.415 0.934-0.73 1.495-0.924 0.634-0.219 1.352-0.219 2.788-0.219z"></path>
</symbol>
<symbol id="icon-line-chart-up" viewBox="0 0 32 32">
<path d="M4 10.4c0-2.24 0-3.36 0.436-4.216 0.383-0.753 0.995-1.365 1.748-1.748 0.856-0.436 1.976-0.436 4.216-0.436h11.2c2.24 0 3.36 0 4.216 0.436 0.753 0.383 1.364 0.995 1.748 1.748 0.436 0.856 0.436 1.976 0.436 4.216v11.2c0 2.24 0 3.36-0.436 4.216-0.384 0.753-0.995 1.364-1.748 1.748-0.856 0.436-1.976 0.436-4.216 0.436h-11.2c-2.24 0-3.36 0-4.216-0.436-0.753-0.384-1.365-0.995-1.748-1.748-0.436-0.856-0.436-1.976-0.436-4.216v-11.2z"></path>
<path fill="none" stroke="#000" style="stroke: var(--color1, #000)" stroke-linejoin="round" stroke-linecap="round" stroke-miterlimit="4" stroke-width="3.2" d="M22.667 12l-7.246 7.246c-0.264 0.264-0.396 0.396-0.548 0.445-0.134 0.044-0.278 0.044-0.412 0-0.152-0.049-0.284-0.181-0.548-0.445l-2.492-2.492c-0.264-0.264-0.396-0.396-0.548-0.445-0.134-0.044-0.278-0.044-0.412 0-0.152 0.049-0.284 0.181-0.548 0.445l-5.912 5.912M22.667 12h-5.333M22.667 12v5.333M10.4 28h11.2c2.24 0 3.36 0 4.216-0.436 0.753-0.384 1.364-0.995 1.748-1.748 0.436-0.856 0.436-1.976 0.436-4.216v-11.2c0-2.24 0-3.36-0.436-4.216-0.384-0.753-0.995-1.365-1.748-1.748-0.856-0.436-1.976-0.436-4.216-0.436h-11.2c-2.24 0-3.36 0-4.216 0.436-0.753 0.383-1.365 0.995-1.748 1.748-0.436 0.856-0.436 1.976-0.436 4.216v11.2c0 2.24 0 3.36 0.436 4.216 0.383 0.753 0.995 1.364 1.748 1.748 0.856 0.436 1.976 0.436 4.216 0.436z"></path>
</symbol>
<symbol id="icon-magic-wand-01" viewBox="0 0 32 32">
<path d="M4.175 26.842c-0.528-0.528-0.792-0.792-0.891-1.096-0.087-0.268-0.087-0.556 0-0.824 0.099-0.304 0.363-0.568 0.891-1.096l9.158-9.158 4 4-9.158 9.158c-0.528 0.528-0.792 0.792-1.096 0.891-0.268 0.087-0.556 0.087-0.824 0-0.304-0.099-0.568-0.363-1.096-0.891l-0.983-0.983z"></path>
<path fill="none" stroke="#000" style="stroke: var(--color1, #000)" stroke-linejoin="round" stroke-linecap="round" stroke-miterlimit="4" stroke-width="3.2" d="M17.334 18.666l-4-4M20.014 4.666v-2M25.266 6.747l1.414-1.414M25.266 17.333l1.414 1.414M14.681 6.747l-1.414-1.414M27.347 12h2M8.175 27.825l12.316-12.316c0.528-0.528 0.792-0.792 0.891-1.096 0.087-0.268 0.087-0.556 0-0.824-0.099-0.304-0.363-0.568-0.891-1.096l-0.983-0.983c-0.528-0.528-0.792-0.792-1.096-0.891-0.268-0.087-0.556-0.087-0.824 0-0.304 0.099-0.568 0.363-1.096 0.891l-12.316 12.316c-0.528 0.528-0.792 0.792-0.891 1.096-0.087 0.268-0.087 0.556 0 0.824 0.099 0.304 0.363 0.568 0.891 1.096l0.983 0.983c0.528 0.528 0.792 0.792 1.096 0.891 0.268 0.087 0.556 0.087 0.824 0 0.304-0.099 0.568-0.363 1.096-0.891z"></path>
</symbol>
<symbol id="icon-notification" viewBox="0 0 32 32">
<path d="M26.828 5.172c1.562 1.562 1.562 4.095 0 5.657s-4.095 1.562-5.657 0c-1.562-1.562-1.562-4.095 0-5.657s4.095-1.562 5.657 0z"></path>
<path fill="none" stroke="#000" style="stroke: var(--color1, #000)" stroke-linejoin="round" stroke-linecap="round" stroke-miterlimit="4" stroke-width="3.2" d="M15.61 4.049c-5.764 0.533-10.277 5.382-10.277 11.285 0 1.267 0.208 2.485 0.591 3.622 0.144 0.428 0.216 0.642 0.229 0.806 0.013 0.162 0.003 0.276-0.037 0.434-0.041 0.16-0.13 0.326-0.31 0.658l-2.181 4.037c-0.311 0.576-0.467 0.864-0.432 1.086 0.030 0.194 0.144 0.364 0.311 0.466 0.192 0.117 0.517 0.083 1.169 0.016l6.828-0.706c0.207-0.021 0.31-0.032 0.404-0.028 0.093 0.004 0.158 0.012 0.248 0.033 0.092 0.021 0.207 0.066 0.439 0.155 1.264 0.487 2.637 0.754 4.073 0.754 5.908 0 10.76-4.52 11.286-10.291M26.829 5.172c1.562 1.562 1.562 4.095 0 5.657s-4.095 1.562-5.657 0c-1.562-1.562-1.562-4.095 0-5.657s4.095-1.562 5.657 0z"></path>
</symbol>
<symbol id="icon-presentation-chart" viewBox="0 0 32 32">
<path d="M28 14.933v-10.933h-24v10.933c0 2.24 0 3.36 0.436 4.216 0.383 0.753 0.995 1.365 1.748 1.748 0.856 0.436 1.976 0.436 4.216 0.436h11.2c2.24 0 3.36 0 4.216-0.436 0.753-0.383 1.364-0.995 1.748-1.748 0.436-0.856 0.436-1.976 0.436-4.216z"></path>
<path fill="none" stroke="#000" style="stroke: var(--color1, #000)" stroke-linejoin="round" stroke-linecap="round" stroke-miterlimit="4" stroke-width="3.2" d="M16 21.333v6.667M24 28l-5.269-4.39c-0.972-0.81-1.457-1.215-2-1.369-0.478-0.136-0.985-0.136-1.463 0-0.542 0.155-1.028 0.56-2 1.369l-5.269 4.39M10.667 14.667v1.333M16 12v4M21.333 9.333v6.667M29.333 4h-26.667M4 4h24v10.933c0 2.24 0 3.36-0.436 4.216-0.384 0.753-0.995 1.365-1.748 1.748-0.856 0.436-1.976 0.436-4.216 0.436h-11.2c-2.24 0-3.36 0-4.216-0.436-0.753-0.383-1.365-0.995-1.748-1.748-0.436-0.856-0.436-1.976-0.436-4.216v-10.933z"></path>
</symbol>
<symbol id="icon-route" viewBox="0 0 32 32">
<path d="M6.667 10.666c2.209 0 4-1.791 4-4s-1.791-4-4-4c-2.209 0-4 1.791-4 4s1.791 4 4 4z"></path>
<path d="M25.333 29.333c2.209 0 4-1.791 4-4s-1.791-4-4-4c-2.209 0-4 1.791-4 4s1.791 4 4 4z"></path>
<path fill="none" stroke="#000" style="stroke: var(--color1, #000)" stroke-linejoin="round" stroke-linecap="round" stroke-miterlimit="4" stroke-width="3.2" d="M15.333 6.666h0.579c4.063 0 6.095 0 6.866 0.73 0.667 0.631 0.962 1.56 0.782 2.46-0.208 1.041-1.867 2.214-5.184 4.56l-5.419 3.833c-3.317 2.346-4.976 3.519-5.184 4.56-0.18 0.9 0.115 1.829 0.782 2.46 0.771 0.73 2.803 0.73 6.866 0.73h1.246M10.667 6.666c0 2.209-1.791 4-4 4s-4-1.791-4-4c0-2.209 1.791-4 4-4s4 1.791 4 4zM29.333 25.333c0 2.209-1.791 4-4 4s-4-1.791-4-4c0-2.209 1.791-4 4-4s4 1.791 4 4z"></path>
</symbol>
<symbol id="icon-search" viewBox="0 0 32 32">
<path d="M15.333 26.667c6.259 0 11.333-5.074 11.333-11.333s-5.074-11.333-11.333-11.333c-6.259 0-11.333 5.074-11.333 11.333s5.074 11.333 11.333 11.333z"></path>
<path fill="none" stroke="#000" style="stroke: var(--color1, #000)" stroke-linejoin="round" stroke-linecap="round" stroke-miterlimit="4" stroke-width="3.2" d="M28 28l-4.667-4.667M26.667 15.333c0 6.259-5.074 11.333-11.333 11.333s-11.333-5.074-11.333-11.333c0-6.259 5.074-11.333 11.333-11.333s11.333 5.074 11.333 11.333z"></path>
</symbol>
<symbol id="icon-shield-dollar" viewBox="0 0 32 32">
<path d="M15.069 28.82c0.295 0.172 0.443 0.258 0.651 0.303 0.162 0.035 0.397 0.035 0.559 0 0.208-0.045 0.356-0.131 0.651-0.303 2.597-1.515 9.736-6.275 9.736-12.82v-6.377c0-1.066 0-1.599-0.174-2.057-0.154-0.405-0.404-0.766-0.729-1.052-0.368-0.324-0.867-0.511-1.865-0.886l-7.149-2.681c-0.277-0.104-0.416-0.156-0.558-0.177-0.126-0.018-0.255-0.018-0.381 0-0.143 0.021-0.281 0.073-0.558 0.177l-7.149 2.681c-0.998 0.374-1.497 0.561-1.865 0.886-0.325 0.286-0.575 0.647-0.729 1.052-0.174 0.458-0.174 0.991-0.174 2.057v6.377c0 6.545 7.139 11.304 9.736 12.82z"></path>
<path fill="none" stroke="#000" style="stroke: var(--color1, #000)" stroke-linejoin="round" stroke-linecap="round" stroke-miterlimit="4" stroke-width="3.2" d="M12.284 19.333c0.416 0.793 1.247 1.333 2.205 1.333h2.845c1.473 0 2.667-1.194 2.667-2.667s-1.194-2.667-2.667-2.667h-2.667c-1.473 0-2.667-1.194-2.667-2.667s1.194-2.667 2.667-2.667h2.845c0.957 0 1.789 0.541 2.205 1.333M16 8v2M16 20.666v2M26.667 16c0 6.545-7.139 11.304-9.736 12.82-0.295 0.172-0.443 0.258-0.651 0.303-0.162 0.035-0.398 0.035-0.559 0-0.208-0.045-0.356-0.131-0.651-0.303-2.597-1.515-9.736-6.275-9.736-12.82v-6.377c0-1.066 0-1.599 0.174-2.057 0.154-0.405 0.404-0.766 0.729-1.052 0.368-0.324 0.867-0.511 1.865-0.886l7.149-2.681c0.277-0.104 0.416-0.156 0.558-0.177 0.126-0.018 0.255-0.018 0.381 0 0.143 0.021 0.281 0.073 0.558 0.177l7.149 2.681c0.998 0.374 1.497 0.561 1.865 0.886 0.325 0.286 0.575 0.647 0.729 1.052 0.174 0.458 0.174 0.991 0.174 2.057v6.377z"></path>
</symbol>
<symbol id="icon-video" viewBox="0 0 32 32">
<path stroke-linejoin="round" stroke-linecap="round" stroke-miterlimit="4" stroke-width="3.2" d="M2.667 13.066c0-2.24 0-3.36 0.436-4.216 0.384-0.753 0.995-1.365 1.748-1.748 0.856-0.436 1.976-0.436 4.216-0.436h7.2c2.24 0 3.36 0 4.216 0.436 0.753 0.383 1.365 0.995 1.748 1.748 0.436 0.856 0.436 1.976 0.436 4.216v5.867c0 2.24 0 3.36-0.436 4.216-0.384 0.753-0.996 1.365-1.748 1.748-0.856 0.436-1.976 0.436-4.216 0.436h-7.2c-2.24 0-3.36 0-4.216-0.436-0.753-0.384-1.365-0.995-1.748-1.748-0.436-0.856-0.436-1.976-0.436-4.216v-5.867z"></path>
<path fill="none" stroke="#000" style="stroke: var(--color1, #000)" stroke-linejoin="round" stroke-linecap="round" stroke-miterlimit="4" stroke-width="3.2" d="M29.333 11.908c0-0.808 0-1.212-0.16-1.399-0.139-0.162-0.347-0.248-0.559-0.232-0.245 0.019-0.531 0.305-1.102 0.876l-4.846 4.846 4.846 4.846c0.571 0.571 0.857 0.857 1.102 0.876 0.213 0.017 0.421-0.069 0.559-0.232 0.16-0.187 0.16-0.591 0.16-1.399v-8.183z"></path>
<path fill="none" stroke="#000" style="stroke: var(--color1, #000)" stroke-linejoin="round" stroke-linecap="round" stroke-miterlimit="4" stroke-width="3.2" d="M2.667 13.066c0-2.24 0-3.36 0.436-4.216 0.384-0.753 0.995-1.365 1.748-1.748 0.856-0.436 1.976-0.436 4.216-0.436h7.2c2.24 0 3.36 0 4.216 0.436 0.753 0.383 1.365 0.995 1.748 1.748 0.436 0.856 0.436 1.976 0.436 4.216v5.867c0 2.24 0 3.36-0.436 4.216-0.384 0.753-0.996 1.365-1.748 1.748-0.856 0.436-1.976 0.436-4.216 0.436h-7.2c-2.24 0-3.36 0-4.216-0.436-0.753-0.384-1.365-0.995-1.748-1.748-0.436-0.856-0.436-1.976-0.436-4.216v-5.867z"></path>
</symbol>
<symbol id="icon-logo-blue" viewBox="0 0 68 32">
<path fill="#3383fe" style="fill: var(--color3, #3383fe)" d="M5.253 3.947l6.511 11.748c0-3.499 0.333-4.48 1.313-6.051 0.027-0.045 0.056-0.089 0.085-0.135 0.358-0.566 0.799-1.217 1.334-2.088 0.068-0.13 0.13-0.258 0.189-0.385 2.098-4.436-0.082-6.973-0.73-6.942-0.667 0.032-2.16 2.321-4.16 2.321-2.084 0-3.597 0.861-4.223 1.293-0.209 0.143-0.319 0.24-0.319 0.24h0.001z"></path>
<path fill="#3383fe" style="fill: var(--color3, #3383fe)" d="M13.16 9.509c0.358-0.566 0.799-1.217 1.334-2.088 0.068-0.13 0.13-0.258 0.189-0.385-0.448-0.383-1.035-0.637-1.595-0.996-0.541-0.343-0.638-0.961-1.088-1.385-1.849-1.743-4.454-2.268-6.429-0.947-0.032 0.022-0.060 0.041-0.087 0.061-0.432 0.302-0.831 0.693-1.184 1.182-0.573 0.847-1.030 1.928-1.372 3.244-0.802 3.089-1.12 6.227-0.958 9.417 0.076 1.496 0.172 2.993 0.283 4.489 0.053 0.708 0.003 1.534-0.147 2.479-0.206 1.108-0.586 1.985-1.14 2.623-0.36 0.417-0.982 0.984-0.968 1.548 0.012 0.491 0.553 0.73 0.979 0.783 1.846 0.235 3.978-0.948 5.38-2.030 0.057-0.044 0.11-0.041 0.158 0.011 1.534 1.518 3.893 2.274 6.001 2.574l0.701 0.089c0.102 0.014 0.124-0.021 0.066-0.106-0.337-0.481-0.367-1.186-0.153-1.673 0.030-0.070 0.053-0.068 0.068 0.007 0.295 1.479 1.161 2.456 2.595 2.934 1.644 0.547 3.302 0.699 4.978 0.454 0.508-0.074 0.963-0.22 1.369-0.437 0.189-0.1 0.177-0.374-0.019-0.458-0.427-0.179-0.822-0.429-1.184-0.749-0.183-0.162-0.153-0.257 0.092-0.284 2.334-0.25 4.53-0.725 6.628-1.637 0.058-0.027 0.117-0.023 0.173 0.007 1.438 0.773 2.974 1.121 4.609 1.046 0.687-0.062 1.289-0.24 1.805-0.533 0.17-0.099 0.145-0.351-0.041-0.413-0.912-0.304-1.613-0.938-2.1-1.902-0.348-0.689-0.708-1.369-1.081-2.044-1.009-1.825-2.507-3.168-4.493-4.031-1.333-0.579-2.661-0.975-3.987-1.185-0.648-0.104-1.279-0.27-1.89-0.497-1.247-0.465-2.351-1.013-3.313-1.643-0.14-0.101-2.803-2.064-3.627-5.154-0.112-0.521-0.412-1.485-0.639-2.236l0.085-0.135v-0.001zM7.017 6.32c0-0.348 0.285-0.633 0.636-0.633s0.636 0.284 0.636 0.633c0 0.348-0.285 0.632-0.636 0.632s-0.636-0.284-0.636-0.632z"></path>
<path fill="#3482fe" style="fill: var(--color4, #3482fe)" d="M21.776 12.113l0.904-2.018c0.862 0.567 2.085 0.954 3.212 0.954s1.585-0.318 1.585-0.788c0-1.535-5.534-0.414-5.534-4.010 0-1.728 1.418-3.138 4.31-3.138 1.265 0 2.572 0.29 3.532 0.844l-0.848 2.033c-0.932-0.498-1.849-0.747-2.697-0.747-1.154 0-1.571 0.387-1.571 0.871 0 1.48 5.52 0.373 5.52 3.941 0 1.687-1.418 3.125-4.31 3.125-1.599 0-3.184-0.429-4.102-1.064v-0.002z"></path>
<path fill="#3482fe" style="fill: var(--color4, #3482fe)" d="M31.551 9.223c0-2.254 1.794-3.858 4.254-3.858s4.254 1.604 4.254 3.858c0 2.254-1.765 3.885-4.254 3.885s-4.254-1.618-4.254-3.885zM37.389 9.223c0-1.134-0.681-1.77-1.585-1.77s-1.585 0.636-1.585 1.77c0 1.134 0.695 1.798 1.585 1.798s1.585-0.65 1.585-1.798z"></path>
<path fill="#3482fe" style="fill: var(--color4, #3482fe)" d="M41.505 9.223c0-2.254 1.794-3.858 4.324-3.858 1.71 0 3.017 0.76 3.532 2.060l-2.044 1.037c-0.362-0.705-0.89-1.010-1.501-1.010-0.918 0-1.64 0.636-1.64 1.77s0.723 1.798 1.64 1.798c0.612 0 1.14-0.304 1.501-1.010l2.044 1.037c-0.514 1.3-1.821 2.060-3.532 2.060-2.531 0-4.324-1.604-4.324-3.885v0.001z"></path>
<path fill="#3482fe" style="fill: var(--color4, #3482fe)" d="M50.765 3.264c0-0.788 0.639-1.397 1.613-1.397s1.613 0.567 1.613 1.355c0 0.83-0.639 1.438-1.613 1.438s-1.613-0.608-1.613-1.397zM51.057 5.49h2.641v7.494h-2.641v-7.494z"></path>
<path fill="#3482fe" style="fill: var(--color4, #3482fe)" d="M63.167 8.822v4.162h-2.461v-0.968c-0.375 0.719-1.126 1.092-2.224 1.092-1.807 0-2.808-1.010-2.808-2.309 0-1.383 1.015-2.24 3.351-2.24h1.501c-0.042-0.76-0.556-1.189-1.599-1.189-0.722 0-1.529 0.249-2.044 0.65l-0.89-1.784c0.862-0.567 2.141-0.871 3.323-0.871 2.447 0 3.851 1.078 3.851 3.457zM60.526 10.579v-0.65h-1.14c-0.848 0-1.154 0.304-1.154 0.76s0.362 0.76 0.987 0.76c0.585 0 1.099-0.277 1.307-0.871v0.001z"></path>
<path fill="#3482fe" style="fill: var(--color4, #3482fe)" d="M65.53 2.724h2.641v10.26h-2.641v-10.26z"></path>
<path fill="#3482fe" style="fill: var(--color4, #3482fe)" d="M36.417 25.001l0.904-2.018c0.862 0.567 2.085 0.954 3.212 0.954s1.585-0.318 1.585-0.788c0-1.535-5.534-0.414-5.534-4.010 0-1.728 1.418-3.138 4.31-3.138 1.265 0 2.572 0.29 3.532 0.843l-0.848 2.033c-0.932-0.498-1.849-0.747-2.697-0.747-1.154 0-1.571 0.387-1.571 0.871 0 1.48 5.52 0.373 5.52 3.941 0 1.687-1.418 3.125-4.31 3.125-1.599 0-3.184-0.429-4.102-1.064v-0.001z"></path>
<path fill="#3482fe" style="fill: var(--color4, #3482fe)" d="M54.491 22.789h-5.478c0.223 0.76 0.876 1.203 1.849 1.203 0.737 0 1.224-0.207 1.738-0.65l1.39 1.438c-0.723 0.802-1.78 1.217-3.212 1.217-2.683 0-4.421-1.645-4.421-3.885s1.765-3.858 4.143-3.858c2.225 0 4.032 1.41 4.032 3.885 0 0.193-0.027 0.443-0.042 0.65zM48.971 21.406h3.087c-0.139-0.788-0.723-1.286-1.543-1.286s-1.39 0.497-1.544 1.286z"></path>
<path fill="#3482fe" style="fill: var(--color4, #3482fe)" d="M64.001 21.71v4.162h-2.46v-0.968c-0.375 0.719-1.126 1.093-2.225 1.093-1.807 0-2.808-1.010-2.808-2.309 0-1.383 1.015-2.24 3.351-2.24h1.501c-0.042-0.76-0.556-1.189-1.598-1.189-0.723 0-1.529 0.249-2.044 0.65l-0.89-1.784c0.862-0.567 2.141-0.871 3.323-0.871 2.447 0 3.851 1.078 3.851 3.457zM61.359 23.467v-0.65h-1.141c-0.848 0-1.154 0.304-1.154 0.76s0.362 0.76 0.987 0.76c0.584 0 1.099-0.277 1.307-0.871v0.001z"></path>
<path fill="#3482fe" style="fill: var(--color4, #3482fe)" d="M65.698 15.613h2.641v10.26h-2.641v-10.26z"></path>
<path fill="#fff" style="fill: var(--color5, #fff)" d="M7.939 5.715c0.072 0.432-0.3 0.802-0.734 0.73-0.263-0.043-0.475-0.254-0.518-0.516-0.072-0.432 0.3-0.802 0.734-0.73 0.263 0.043 0.475 0.254 0.518 0.516z"></path>
</symbol>
</defs>
</svg>
