<svg aria-hidden="true" style="position: absolute; width: 0; height: 0; overflow: hidden;" version="1.1" xmlns="http://www.w3.org/2000/svg" xmlns:xlink="http://www.w3.org/1999/xlink">
<defs>
<symbol id="icon-facebook" viewBox="0 0 31 32">
<path fill="#acb5bc" style="fill: var(--color1, #acb5bc)" d="M29.091 21.974c0.015 4.051-3.258 7.346-7.31 7.361l-12.437 0.043c-4.051 0.015-7.346-3.258-7.361-7.31l-0.043-12.421c-0.016-4.051 3.258-7.346 7.31-7.361l12.437-0.043c4.051-0.015 7.346 3.258 7.361 7.31l0.043 12.421zM21.739 16.034c1.463 0.026 1.368 2.032-0.026 2.035-1.233 0.002-2.514 0.002-3.842 0-0.045 0-0.079 0.034-0.079 0.079v8.963c0 0.101 0.085 0.182 0.188 0.18 1.731-0.069 3.872 0.22 5.459-0.362 2.588-0.945 3.607-3.171 3.57-5.817-0.045-3.392-0.045-6.901 0.005-10.529 0.013-1.153-0.119-2.101-0.399-2.845-0.834-2.205-2.829-3.392-5.149-3.377-4.083 0.029-8.127 0.029-12.125 0.005-2.226-0.013-4.091 1.283-4.962 3.329-0.227 0.537-0.341 1.045-0.341 1.521 0.005 3.872 0.002 8.029-0.008 12.472-0.002 1.395 0.358 2.562 1.082 3.501 0.69 0.894 1.553 1.5 2.586 1.818 0.69 0.214 1.699 0.304 3.022 0.272 1.712-0.040 3.342-0.040 4.893 0.002 0.058 0.002 0.105-0.045 0.105-0.103l-0.034-8.973c0-0.109-0.056-0.161-0.164-0.154-0.336 0.024-0.68 0.043-1.037 0.061-1.63 0.082-1.759-2.151-0.199-2.104 0.442 0.013 0.87 0.013 1.281-0.002 0.101-0.005 0.178-0.090 0.169-0.191-0.064-0.913-0.124-1.9 0.182-2.771 0.579-1.643 1.683-2.689 3.308-3.136 0.717-0.199 1.633-0.24 2.747-0.13 0.495 0.050 0.762 0.323 0.802 0.82l0.013 0.15c0.050 0.654-0.249 1.011-0.9 1.072-0.362 0.034-0.749 0.043-1.159 0.019-1.656-0.095-2.995 1.157-2.94 2.856 0.013 0.392 0.008 0.78-0.019 1.17-0.005 0.085 0.061 0.156 0.146 0.154 1.294-0.013 2.569-0.011 3.827 0.013l-0.002 0.002z"></path>
</symbol>
<symbol id="icon-google" viewBox="0 0 31 32">
<path fill="#acb5bc" style="fill: var(--color1, #acb5bc)" d="M29.091 22.095c0.008 4.024-3.247 7.289-7.271 7.297l-12.562 0.022c-4.024 0.008-7.289-3.25-7.297-7.271l-0.022-12.615c-0.008-4.024 3.247-7.289 7.271-7.297l12.562-0.022c4.024-0.008 7.289 3.25 7.297 7.271l0.022 12.615zM27.006 9.618c0-2.921-2.368-5.289-5.289-5.289h-12.408c-2.921 0-5.289 2.368-5.289 5.289v12.408c0 2.921 2.368 5.289 5.289 5.289h12.408c2.921 0 5.289-2.368 5.289-5.289v-12.408z"></path>
<path fill="#acb5bc" style="fill: var(--color1, #acb5bc)" d="M21.107 16.859c-1.504 0.011-3.069 0.013-4.689 0.011-1.462-0.002-1.488-2.106 0.093-2.103 1.888 0.002 3.862 0.002 5.921 0.005 0.565 0 1.045 0.368 1.053 0.963 0.021 1.663-0.369 3.103-1.17 4.318-1.706 2.592-4.101 3.846-7.186 3.761-3.602-0.099-6.851-2.846-7.448-6.342-0.517-3.032 0.273-5.538 2.377-7.517 2.886-2.719 7.395-2.83 10.477-0.363 0.379 0.303 0.52 0.692 0.427 1.167-0.162 0.822-1.106 0.929-1.697 0.499-2.263-1.645-4.509-1.809-6.734-0.496-2.78 1.639-3.756 5.132-2.162 7.971 2.642 4.703 9.782 3.618 10.896-1.679 0.029-0.13-0.024-0.195-0.157-0.195z"></path>
</symbol>
<symbol id="icon-instagram" viewBox="0 0 31 32">
<path fill="#acb5bc" style="fill: var(--color1, #acb5bc)" d="M29.069 22.083c-0.008 4.036-3.283 7.301-7.319 7.293l-12.518-0.022c-4.036-0.008-7.301-3.283-7.293-7.319l0.022-12.497c0.008-4.036 3.283-7.301 7.319-7.293l12.518 0.022c4.036 0.008 7.301 3.283 7.293 7.319l-0.022 12.497zM27.010 9.657c0.005-2.925-2.361-5.298-5.285-5.304l-12.396-0.022c-2.925-0.005-5.298 2.361-5.304 5.285l-0.022 12.333c-0.005 2.925 2.361 5.298 5.285 5.304l12.397 0.022c2.925 0.005 5.298-2.361 5.304-5.285l0.021-12.333z"></path>
<path fill="#acb5bc" style="fill: var(--color1, #acb5bc)" d="M22.371 10.435c0.841 0 1.524-0.682 1.524-1.524s-0.682-1.524-1.524-1.524c-0.841 0-1.524 0.682-1.524 1.524s0.682 1.524 1.524 1.524z"></path>
<path fill="#acb5bc" style="fill: var(--color1, #acb5bc)" d="M21.544 15.79c0 3.347-2.71 6.058-6.058 6.058s-6.058-2.71-6.058-6.058c0-3.347 2.711-6.058 6.058-6.058s6.058 2.711 6.058 6.058zM19.44 15.785c0-2.184-1.77-3.954-3.954-3.954s-3.954 1.77-3.954 3.954c0 2.184 1.77 3.954 3.954 3.954s3.954-1.77 3.954-3.954z"></path>
</symbol>
<symbol id="icon-linkedin" viewBox="0 0 31 32">
<path fill="#acb5bc" style="fill: var(--color1, #acb5bc)" d="M29.089 22.016c0.008 4.049-3.266 7.336-7.314 7.344l-12.476 0.022c-4.047 0.008-7.332-3.268-7.339-7.319l-0.022-12.467c-0.008-4.049 3.266-7.336 7.314-7.344l12.476-0.022c4.047-0.008 7.332 3.268 7.339 7.319l0.022 12.467zM27.001 9.654c0.005-2.922-2.361-5.297-5.281-5.302l-12.391-0.022c-2.921-0.005-5.294 2.361-5.299 5.284l-0.022 12.34c-0.005 2.922 2.361 5.297 5.281 5.302l12.391 0.022c2.921 0.005 5.294-2.361 5.299-5.284l0.022-12.34z"></path>
<path fill="#acb5bc" style="fill: var(--color1, #acb5bc)" d="M10.101 11.701c0.756 0 1.369-0.613 1.369-1.37s-0.613-1.37-1.369-1.37c-0.756 0-1.369 0.613-1.369 1.37s0.613 1.37 1.369 1.37z"></path>
<path fill="#acb5bc" style="fill: var(--color1, #acb5bc)" d="M9.049 14.506l-0.013 7.581c-0.001 0.551 0.445 0.999 0.997 1l0.064 0c0.551 0.001 0.999-0.445 1-0.997l0.013-7.581c0.001-0.551-0.445-0.999-0.997-1l-0.064-0c-0.551-0.001-0.999 0.445-1 0.997z"></path>
<path fill="#acb5bc" style="fill: var(--color1, #acb5bc)" d="M20.040 13.917c0.932 0.424 1.616 1.161 2.050 2.213 0.254 0.612 0.363 1.402 0.326 2.369-0.043 1.182-0.040 2.298 0.008 3.351 0.034 0.753-0.313 1.153-1.041 1.198h-0.043c-0.681-0.013-1.025-0.365-1.033-1.063-0.013-1.334-0.005-2.683 0.024-4.050 0.011-0.53-0.101-0.986-0.337-1.368-0.363-0.586-0.895-0.906-1.597-0.965-0.569-0.048-1.075 0.114-1.515 0.488-0.273 0.23-0.472 0.511-0.599 0.848-0.114 0.297-0.17 0.623-0.167 0.975 0.008 1.312 0.015 2.683 0.019 4.111 0.002 0.683-0.352 1.033-1.060 1.052-0.013 0-0.029 0-0.043-0.002-0.707-0.077-1.052-0.472-1.028-1.185 0.032-1.002 0.029-2.051-0.008-3.146-0.040-1.158 0.085-2.062 0.373-2.711 0.493-1.105 1.287-1.852 2.387-2.24 1.126-0.397 2.22-0.355 3.283 0.125z"></path>
</symbol>
<symbol id="icon-pinterest" viewBox="0 0 31 32">
<path fill="#acb5bc" style="fill: var(--color1, #acb5bc)" d="M29.091 15.811c0 7.496-6.080 13.576-13.576 13.576s-13.576-6.080-13.576-13.576c0-7.496 6.080-13.576 13.576-13.576s13.576 6.080 13.576 13.576zM9.927 16.806c0.231 0.706-0.151 1.427-0.966 1.399-0.517-0.019-0.86-0.273-1.029-0.762-0.833-2.38-0.39-4.981 1.351-6.926 2.921-3.259 8.329-3.686 11.747-0.698 1.812 1.584 2.63 3.572 2.452 5.962-0.159 2.15-1.375 4.227-3.16 5.387-2.157 1.399-4.464 1.629-6.923 0.695-0.082-0.032-0.172 0.016-0.191 0.101l-1.027 4.617c-0.019 0.080 0.011 0.135 0.085 0.168 0.393 0.172 0.801 0.289 1.226 0.351 3.885 0.552 7.189-0.446 9.909-2.991 2.828-2.648 4.19-6.751 3.383-10.495-0.958-4.453-4.36-8.094-8.81-8.983-5.623-1.123-10.731 1.582-13.053 6.793-2.396 5.384 0.093 11.596 5.021 14.393 0.114 0.064 0.258 0 0.284-0.127 0.854-3.85 1.711-7.69 2.569-11.514 0.318-1.414 2.343-0.945 2.033 0.469-0.334 1.521-0.69 3.158-1.070 4.912-0.021 0.095 0.029 0.194 0.119 0.233 1.775 0.801 3.468 0.714 5.073-0.263 2.434-1.481 3.267-4.713 1.558-7.152-2.163-3.089-6.849-3.25-9.423-0.663-1.412 1.417-1.796 3.115-1.156 5.092z"></path>
</symbol>
<symbol id="icon-twitter" viewBox="0 0 31 32">
<path fill="#acb5bc" style="fill: var(--color1, #acb5bc)" d="M11.9 9.974c0.061 0.032 0.135 0 0.154-0.066 1.13-4.045 3.799-5.951 8.010-5.718 1.842 0.101 3.377 0.846 4.607 2.237 0.125 0.14 0.303 0.22 0.49 0.22l2.918-0.002c0.806 0 1.285 0.896 0.84 1.566-1.326 1.988-2.039 3.064-2.136 3.226-0.125 0.204-0.196 0.427-0.209 0.662-0.114 1.962-0.369 3.835-0.991 5.745-1.575 4.832-5.36 8.252-10.277 9.278-5.447 1.134-10.086-0.252-13.092-5.004-0.509-0.806-0.31-1.389 0.599-1.749 0.586-0.233 1.199-0.424 1.837-0.573 0.14-0.032 0.204-0.199 0.116-0.316-1.524-2.065-2.344-4.329-2.458-6.794-0.133-2.818 0.507-5.326 1.919-7.523 0.157-0.244 0.329-0.477 0.511-0.7 0.496-0.599 1.336-0.334 1.689 0.275 1.317 2.277 3.141 4.022 5.471 5.236l0.002-0.001zM7.606 19.613c0.419 0.485 0.23 1.238-0.369 1.468-0.713 0.273-1.455 0.511-2.221 0.716-0.23 0.061-0.273 0.189-0.127 0.376 2.677 3.454 7.049 3.799 11.020 2.621 5.786-1.712 8.56-7.215 8.551-13.010 0-0.352 0.101-0.793 0.297-1.089 0.384-0.58 0.801-1.185 1.246-1.818 0.056-0.080-0.002-0.185-0.101-0.185l-1.641 0.029c-0.329 0.005-0.639-0.151-0.83-0.419-0.793-1.1-1.704-1.805-3.109-1.994-3.483-0.469-6.11 1.538-6.28 5.113-0.053 1.087-0.991 1.214-1.826 0.917-2.68-0.954-4.944-2.722-6.6-5.028-0.064-0.088-0.196-0.074-0.241 0.024-0.877 1.938-1.177 3.981-0.898 6.132 0.316 2.407 1.521 4.284 3.131 6.147h-0.002z"></path>
</symbol>
<symbol id="icon-youtube" viewBox="0 0 31 32">
<path fill="#acb5bc" style="fill: var(--color1, #acb5bc)" d="M24.010 4.871c3.338 0.272 4.516 2.309 4.804 5.399 0.393 4.188 0.366 8.107-0.074 11.753-0.289 2.389-1.568 4.35-4.046 4.627-3.268 0.366-7.305 0.501-12.109 0.405-1.729-0.036-3.528-0.133-5.395-0.292-2.406-0.205-4.080-1.123-4.672-3.492-0.238-0.956-0.39-2.015-0.455-3.179-0.195-3.393-0.159-6.668 0.109-9.826 0.214-2.555 1.206-4.884 4.051-5.272 1.005-0.137 2.008-0.231 3.013-0.284 5.176-0.275 10.1-0.222 14.775 0.161zM26.944 10.357c-0.142-1.614-0.711-3.352-2.608-3.526-5.366-0.493-10.852-0.534-16.456-0.118-2.11 0.154-3.42 0.547-3.704 2.88-0.497 4.073-0.499 8.232-0.005 12.483 0.2 1.712 1.156 2.634 2.873 2.772 5.534 0.436 10.796 0.467 15.787 0.099 1.197-0.089 1.989-0.22 2.377-0.393 0.773-0.349 1.264-0.956 1.472-1.821 0.205-0.86 0.342-1.967 0.412-3.328 0.157-3.121 0.105-6.136-0.147-9.049z"></path>
<path fill="#acb5bc" style="fill: var(--color1, #acb5bc)" d="M13.452 11.193l6.611 3.812c0.621 0.359 0.621 1.254 0 1.614l-6.611 3.812c-0.621 0.359-1.397-0.092-1.397-0.807v-7.625c0-0.715 0.776-1.165 1.397-0.806zM14.068 13.792c-0.068-0.036-0.149 0.012-0.149 0.089l0.012 3.875c0.002 0.079 0.085 0.128 0.152 0.089l3.432-1.951c0.067-0.039 0.067-0.137 0-0.176l-3.447-1.926z"></path>
</symbol>
</defs>
</svg>
